<svg width="23" height="22" viewBox="0 0 23 22" fill="none" xmlns="http://www.w3.org/2000/svg">
<path fill-rule="evenodd" clip-rule="evenodd" d="M11.5 19C15.9183 19 19.5 15.4183 19.5 11C19.5 6.58172 15.9183 3 11.5 3C7.08172 3 3.5 6.58172 3.5 11C3.5 15.4183 7.08172 19 11.5 19ZM12.5 7C12.5 6.44772 12.0523 6 11.5 6C10.9477 6 10.5 6.44772 10.5 7V11V11.5352L10.9453 11.8321L13.9453 13.8321C14.4048 14.1384 15.0257 14.0142 15.3321 13.5547C15.6384 13.0952 15.5142 12.4743 15.0547 12.1679L12.5 10.4648V7Z" fill="#A9D7C2"/>
</svg>
