<svg width="22" height="22" viewBox="0 0 22 22" fill="none" xmlns="http://www.w3.org/2000/svg">
<path fill-rule="evenodd" clip-rule="evenodd" d="M9.77336 1.64981C8.28536 1.93409 7.08715 2.56873 6.01749 3.63922C4.39151 5.26653 3.64725 7.53748 4.0272 9.71276C4.51666 12.5155 6.77642 16.1948 10.1443 19.6724C10.547 20.0882 10.9326 20.4284 11.0011 20.4284C11.0697 20.4284 11.4552 20.0882 11.8579 19.6724C15.2258 16.1948 17.4856 12.5155 17.975 9.71276C18.355 7.53748 17.6107 5.26653 15.9847 3.63922C15.0404 2.69427 13.9992 2.09607 12.7071 1.75632C11.9738 1.56351 10.5043 1.51018 9.77336 1.64981ZM11.6793 5.46421C12.9672 5.73793 13.9612 6.79898 14.1917 8.14622C14.417 9.4619 13.6848 10.8923 12.4728 11.5046C10.5212 12.4905 8.18755 11.308 7.81704 9.14554C7.43621 6.9229 9.46115 4.99288 11.6793 5.46421Z" fill="#A9D7C2"/>
</svg>
