<svg width="22" height="22" viewBox="0 0 22 22" fill="none" xmlns="http://www.w3.org/2000/svg">
<path fill-rule="evenodd" clip-rule="evenodd" d="M11.6115 18.0575C9.34285 16.957 7.35514 15.4018 5.70392 13.4264C4.3441 11.7913 3.42829 10.2603 2.82123 8.61133C2.42577 7.54555 2.27313 6.66376 2.33904 5.83405C2.39455 5.17098 2.66166 4.59816 3.13343 4.12603L4.43082 2.82765C4.802 2.47355 5.22521 2.28955 5.66577 2.28955C6.10979 2.28955 6.52953 2.47355 6.88684 2.82418C7.12273 3.04289 7.36208 3.2859 7.59103 3.52197L7.60061 3.53183C7.71518 3.64987 7.82674 3.7648 7.94487 3.88301L8.97861 4.91755C9.35673 5.29248 9.55446 5.72643 9.55446 6.16732C9.55446 6.60822 9.35326 7.04217 8.97861 7.4171C8.87108 7.52472 8.76354 7.63234 8.65947 7.73996C8.36461 8.04199 8.05934 8.35096 7.73326 8.64604C7.96568 9.18414 8.2987 9.71182 8.79476 10.3402C9.77647 11.5448 10.8033 12.4822 11.9342 13.2008C12.0486 13.2737 12.177 13.3396 12.3157 13.4091L12.3158 13.4091C12.4268 13.4646 12.5447 13.5236 12.6592 13.5896L13.9011 12.3468C14.2653 11.9822 14.692 11.7878 15.136 11.7878C15.58 11.7878 16.0032 11.9822 16.3571 12.3502L18.4419 14.4367C19.1877 15.1831 19.1877 16.1621 18.4488 16.9327C18.2893 17.0994 18.1228 17.2625 17.9597 17.4188C17.9432 17.4348 17.9268 17.4507 17.9105 17.4666C17.689 17.6816 17.4776 17.8868 17.2902 18.1131C17.2867 18.12 17.2798 18.127 17.2763 18.1304C16.7109 18.7449 16.0171 19.0435 15.1533 19.0435C15.0767 19.0435 15.0033 19.0403 14.9269 19.0369L14.9175 19.0365C13.6305 18.9532 12.4753 18.4672 11.6115 18.0575Z" fill="#A9D7C2"/>
</svg>
