<svg width="35" height="35" viewBox="0 0 35 35" fill="none" xmlns="http://www.w3.org/2000/svg">
<g clip-path="url(#clip0_2615_1803)">
<path d="M17.5024 34.092C26.9163 34.092 34.5478 26.4605 34.5478 17.0466C34.5478 7.6327 26.9163 0.0012207 17.5024 0.0012207C8.08851 0.0012207 0.457031 7.6327 0.457031 17.0466C0.457031 26.4605 8.08851 34.092 17.5024 34.092Z" fill="#41B4E6"/>
<path d="M34.5482 17.0457C34.5482 16.6303 34.5326 16.2188 34.5034 15.8108L27.4389 8.7464L7.56641 16.5633L15.1697 24.1667L15.2695 24.5258L15.3986 24.3956L15.3991 24.3961L15.2695 24.5258L23.6802 32.9365C30.0403 30.4622 34.5482 24.2807 34.5482 17.0457Z" fill="#0091C8"/>
<path d="M15.8473 19.5291L23.5505 25.345L27.439 8.7464L7.56641 16.5633L13.6134 18.5663L24.6493 11.1637L15.8473 19.5291Z" fill="white"/>
<path d="M13.6133 18.5663L15.2694 24.5259L15.8472 19.5291L24.6492 11.1638L13.6133 18.5663Z" fill="#D2D2D7"/>
<path d="M18.3509 21.4193L15.2695 24.5259L15.8473 19.5291L18.3509 21.4193Z" fill="#B9B9BE"/>
</g>
<defs>
<clipPath id="clip0_2615_1803">
<rect width="34.0912" height="34.0912" fill="white" transform="translate(0.457031)"/>
</clipPath>
</defs>
</svg>
