<svg width="35" height="35" viewBox="0 0 35 35" fill="none" xmlns="http://www.w3.org/2000/svg">
<g clip-path="url(#clip0_2615_1779)">
<path d="M17.0456 34.0912C26.4596 34.0912 34.0912 26.4596 34.0912 17.0456C34.0912 7.63157 26.4596 0 17.0456 0C7.63157 0 0 7.63157 0 17.0456C0 26.4596 7.63157 34.0912 17.0456 34.0912Z" fill="#6F3FAA"/>
<path d="M24.4406 9.35142C20.2916 8.34932 16.1352 7.17717 11.8803 8.6664C9.12546 9.69945 9.12546 12.6839 9.24025 15.2092C9.24025 15.8979 8.43678 16.8162 8.78108 17.6197C9.46977 19.9154 10.0437 22.211 12.4542 23.3589C12.7986 23.5885 12.4542 24.0476 12.6838 24.392C12.569 24.392 12.3394 24.5067 12.3394 24.6215C12.3394 25.1717 12.5863 26.0133 12.4223 26.5558L19.747 33.8774C27.277 32.6782 33.1623 26.5486 33.9903 18.9012L24.4406 9.35142Z" fill="#512D84"/>
<path d="M26.0622 11.98L26.0566 11.9575C25.6011 10.1162 23.5478 8.14054 21.6621 7.72951L21.6409 7.72512C18.5909 7.1433 15.4984 7.1433 12.4491 7.72512L12.4272 7.72951C10.5422 8.14054 8.48884 10.1164 8.03281 11.9575L8.02775 11.98C7.46471 14.5513 7.46471 17.159 8.02775 19.7303L8.03281 19.7528C8.46947 21.5154 10.3699 23.4004 12.1851 23.9188V25.9741C12.1851 26.718 13.0917 27.0834 13.6072 26.5465L15.6896 24.3819C16.1413 24.4072 16.5932 24.4213 17.045 24.4213C18.5802 24.4213 20.1162 24.276 21.6408 23.9852L21.6621 23.9808C23.5477 23.5698 25.6011 21.594 26.0565 19.7528L26.0621 19.7303C26.6251 17.159 26.6251 14.5514 26.0622 11.98ZM24.4141 19.3575C24.1101 20.5587 22.551 22.0521 21.3123 22.328C19.6907 22.6364 18.0561 22.7682 16.4232 22.723C16.3907 22.722 16.3594 22.7347 16.3369 22.758C16.1051 22.9958 14.8164 24.3189 14.8164 24.3189L13.1992 25.9787C13.081 26.102 12.8732 26.018 12.8732 25.8479V22.443C12.8732 22.3868 12.8331 22.339 12.7778 22.3281C12.7775 22.328 12.7772 22.328 12.7769 22.3279C11.5381 22.052 9.97967 20.5586 9.67504 19.3574C9.16827 17.0332 9.16827 14.6771 9.67504 12.3529C9.97967 11.1516 11.5381 9.65826 12.7769 9.38233C15.6091 8.84367 18.4808 8.84367 21.3124 9.38233C22.5517 9.65826 24.1101 11.1516 24.4142 12.3529C24.9215 14.6771 24.9215 17.0333 24.4141 19.3575Z" fill="white"/>
<path d="M19.7382 20.9292C19.5477 20.8714 19.3663 20.8326 19.1976 20.7627C17.4511 20.0381 15.8437 19.1032 14.5706 17.6703C13.8465 16.8554 13.2798 15.9354 12.8008 14.9618C12.5736 14.5001 12.3822 14.0204 12.187 13.5436C12.0091 13.109 12.2712 12.6599 12.5471 12.3323C12.8061 12.0249 13.1393 11.7897 13.5002 11.6163C13.7819 11.481 14.0597 11.559 14.2654 11.7977C14.71 12.3139 15.1186 12.8564 15.4493 13.4547C15.6527 13.8228 15.5969 14.2726 15.2282 14.523C15.1386 14.5839 15.057 14.6554 14.9735 14.7241C14.9003 14.7844 14.8314 14.8452 14.7812 14.9268C14.6895 15.076 14.6851 15.2521 14.7441 15.4144C15.1987 16.6636 15.9649 17.635 17.2223 18.1583C17.4236 18.242 17.6256 18.3394 17.8574 18.3125C18.2456 18.2671 18.3713 17.8413 18.6434 17.6188C18.9093 17.4014 19.2491 17.3985 19.5355 17.5798C19.822 17.7612 20.0996 17.9557 20.3757 18.1525C20.6467 18.3456 20.9164 18.5343 21.1663 18.7545C21.4067 18.9662 21.4895 19.2439 21.3541 19.531C21.1064 20.0571 20.7459 20.4946 20.2259 20.774C20.0791 20.8527 19.9037 20.8782 19.7382 20.9292C19.9037 20.8782 19.5477 20.8714 19.7382 20.9292Z" fill="white"/>
<path d="M17.0523 11.014C19.3368 11.078 21.2132 12.5941 21.6153 14.8526C21.6838 15.2375 21.7082 15.6309 21.7386 16.0215C21.7515 16.1858 21.6584 16.3418 21.4812 16.344C21.2981 16.3462 21.2157 16.193 21.2037 16.0288C21.1802 15.7038 21.1639 15.3772 21.1191 15.0549C20.8826 13.3531 19.5257 11.9451 17.8318 11.6431C17.5768 11.5976 17.3161 11.5857 17.0578 11.5586C16.8946 11.5414 16.6808 11.5316 16.6447 11.3286C16.6144 11.1585 16.758 11.0231 16.92 11.0144C16.9638 11.0118 17.0081 11.0138 17.0523 11.014C19.3369 11.078 17.0081 11.0138 17.0523 11.014Z" fill="white"/>
<path d="M20.5187 15.5152C20.5149 15.5438 20.5129 15.6108 20.4961 15.674C20.4356 15.9033 20.0877 15.932 20.0078 15.7006C19.984 15.6319 19.9805 15.5538 19.9803 15.4799C19.9795 14.9961 19.8744 14.5127 19.6304 14.0917C19.3795 13.6589 18.9963 13.2953 18.5469 13.0751C18.2751 12.9421 17.9813 12.8593 17.6834 12.8101C17.5532 12.7885 17.4216 12.7755 17.2908 12.7573C17.1323 12.7353 17.0476 12.6343 17.0552 12.478C17.0621 12.3317 17.1691 12.2263 17.3287 12.2354C17.8529 12.2651 18.3593 12.3786 18.8255 12.6253C19.7732 13.1273 20.3147 13.9195 20.4728 14.9775C20.4799 15.0255 20.4914 15.0729 20.495 15.121C20.5039 15.2396 20.5096 15.3585 20.5187 15.5152C20.5149 15.5437 20.5096 15.3585 20.5187 15.5152Z" fill="white"/>
<path d="M19.0984 15.4591C18.9073 15.4626 18.805 15.3567 18.7852 15.1816C18.7716 15.0595 18.7606 14.9357 18.7315 14.8167C18.6741 14.5826 18.5496 14.3656 18.3527 14.2221C18.2597 14.1544 18.1543 14.1051 18.044 14.0731C17.9038 14.0326 17.7581 14.0438 17.6184 14.0095C17.4665 13.9723 17.3825 13.8493 17.4064 13.7069C17.4281 13.5771 17.5542 13.4759 17.6959 13.4863C18.5817 13.5502 19.2147 14.0081 19.305 15.0508C19.3115 15.1244 19.319 15.2021 19.3026 15.2726C19.2745 15.3929 19.1853 15.4533 19.0984 15.4591C19.1853 15.4533 18.9072 15.4625 19.0984 15.4591Z" fill="white"/>
<path d="M26.0598 11.9801L26.0542 11.9576C25.799 10.9255 25.0414 9.8512 24.0928 9.03381L22.8105 10.1703C23.573 10.7779 24.2263 11.6195 24.4119 12.3529C24.9193 14.6772 24.9193 17.0332 24.4119 19.3576C24.1078 20.5588 22.5488 22.0522 21.3101 22.3281C19.6884 22.6365 18.0539 22.7683 16.421 22.7231C16.3885 22.7221 16.3572 22.7348 16.3347 22.7581C16.1029 22.9959 14.8142 24.319 14.8142 24.319L13.197 25.9788C13.0788 26.1021 12.871 26.0183 12.871 25.848V22.4432C12.871 22.3869 12.8309 22.3392 12.7756 22.3282C12.7753 22.3282 12.775 22.3281 12.7747 22.3281C12.0707 22.1713 11.2637 21.6211 10.6421 20.9551L9.375 22.0779C10.1664 22.9387 11.187 23.6347 12.1827 23.919V25.9743C12.1827 26.7183 13.0893 27.0836 13.6048 26.5467L15.6872 24.3822C16.1389 24.4074 16.5907 24.4215 17.0426 24.4215C18.5778 24.4215 20.1138 24.2763 21.6384 23.9854L21.6597 23.9811C23.5453 23.5701 25.5987 21.5944 26.0541 19.7532L26.0597 19.7306C26.6228 17.1591 26.6228 14.5515 26.0598 11.9801Z" fill="#D1D1D1"/>
<path d="M19.7413 20.9294C19.5509 20.8715 19.9069 20.8784 19.7413 20.9294V20.9294Z" fill="white"/>
<path d="M21.1716 18.7543C20.9217 18.5343 20.6518 18.3454 20.381 18.1523C20.1049 17.9555 19.8273 17.761 19.5407 17.5796C19.2544 17.3984 18.9146 17.4012 18.6486 17.6186C18.3766 17.8411 18.2509 18.2669 17.8627 18.3123C17.6309 18.3393 17.4288 18.2418 17.2276 18.1581C16.454 17.8363 15.867 17.3441 15.4233 16.7227L14.4805 17.5583C14.5125 17.5954 14.5431 17.6335 14.5756 17.6701C15.8488 19.103 17.4563 20.0379 19.2027 20.7625C19.3712 20.8324 19.5528 20.8713 19.7432 20.929C19.5528 20.8712 19.9089 20.8781 19.7432 20.929C19.9089 20.8781 20.0841 20.8525 20.2311 20.7738C20.7512 20.4944 21.1116 20.0568 21.3593 19.5308C21.4947 19.2437 21.412 18.966 21.1716 18.7543Z" fill="#D1D1D1"/>
<path d="M17.0603 11.0158C17.0574 11.0158 17.0546 11.0155 17.0517 11.0155C17.0489 11.0153 17.0525 11.0155 17.0603 11.0158Z" fill="white"/>
<path d="M17.0547 11.0153C17.0566 11.0153 17.0585 11.0155 17.0604 11.0155C17.1872 11.0199 19.2492 11.075 17.0547 11.0153Z" fill="white"/>
<path d="M20.3278 12.3736L19.9258 12.7299C20.5575 13.3445 20.9931 14.159 21.1176 15.0553C21.1623 15.3777 21.1788 15.7042 21.2023 16.0293C21.2142 16.1935 21.2965 16.3467 21.4797 16.3446C21.657 16.3424 21.7501 16.1864 21.7372 16.0221C21.7066 15.6315 21.6823 15.238 21.6138 14.8532C21.4378 13.8646 20.9793 13.0182 20.3278 12.3736Z" fill="#D1D1D1"/>
<path d="M20.4763 14.9774C20.3612 14.2065 20.0414 13.5774 19.5102 13.0981L19.1094 13.4533C19.3167 13.6373 19.496 13.8534 19.6341 14.0917C19.8781 14.5127 19.9832 14.9961 19.984 15.4799C19.9842 15.5538 19.9877 15.632 20.0115 15.7008C20.0916 15.9323 20.4393 15.9036 20.4999 15.6741C20.5166 15.6109 20.5186 15.5438 20.5224 15.5154C20.5132 15.3587 20.5186 15.544 20.5224 15.5154C20.5132 15.3587 20.5076 15.2398 20.4986 15.121C20.4951 15.0727 20.4835 15.0253 20.4763 14.9774Z" fill="#D1D1D1"/>
<path d="M20.5244 15.5158C20.5156 15.359 20.5207 15.5442 20.5244 15.5158V15.5158Z" fill="white"/>
<path d="M19.1013 15.4606C19.1041 15.4604 19.1068 15.459 19.1096 15.4587C19.1019 15.4587 19.0902 15.4589 19.0781 15.4593C19.086 15.4595 19.0931 15.4607 19.1013 15.4606Z" fill="white"/>
<path d="M19.1038 15.461C19.0952 15.4611 19.0876 15.4599 19.0793 15.4596C19.038 15.4607 18.9953 15.4628 19.1038 15.461Z" fill="white"/>
<path d="M19.1098 15.4587C19.107 15.459 19.1043 15.4604 19.1016 15.4606C19.1227 15.4592 19.1209 15.4587 19.1098 15.4587Z" fill="white"/>
<path d="M18.6971 13.8185L18.2891 14.1802C18.3116 14.1938 18.3336 14.2081 18.355 14.2236C18.5519 14.3671 18.6764 14.584 18.7338 14.8182C18.7629 14.9371 18.7737 15.0608 18.7875 15.1831C18.8063 15.3504 18.9014 15.4533 19.0762 15.4593C19.0889 15.4589 19.1014 15.4587 19.1094 15.4586C19.1935 15.4493 19.2779 15.3903 19.3049 15.2739C19.3212 15.2035 19.3137 15.1257 19.3073 15.0521C19.2565 14.4691 19.0361 14.0692 18.6971 13.8185Z" fill="#D1D1D1"/>
</g>
<defs>
<clipPath id="clip0_2615_1779">
<rect width="34.0912" height="34.0912" fill="white"/>
</clipPath>
</defs>
</svg>
