<svg width="35" height="35" viewBox="0 0 35 35" fill="none" xmlns="http://www.w3.org/2000/svg">
<g clip-path="url(#clip0_2615_1809)">
<path d="M17.9557 34.0912C27.3698 34.0912 35.0013 26.4596 35.0013 17.0456C35.0013 7.63157 27.3698 0 17.9557 0C8.54172 0 0.910156 7.63157 0.910156 17.0456C0.910156 26.4596 8.54172 34.0912 17.9557 34.0912Z" fill="#75B73B"/>
<path d="M24.8946 10.1092C23.9063 9.86202 22.4529 9.00841 21.5121 8.66623C17.839 7.51838 12.9032 8.43665 11.5258 12.6837C11.411 12.7985 11.1814 12.7985 11.0666 12.7985C8.31179 16.0125 10.1484 19.9152 9.9188 23.4735C9.84043 24.7279 9.18085 25.8371 8.33203 26.7753L15.4753 33.9111C16.2846 34.029 17.1118 34.0911 17.9538 34.0911C26.3724 34.0911 33.3649 27.9877 34.7495 19.9645L24.8946 10.1092Z" fill="black" fill-opacity="0.2"/>
<path d="M17.4791 7.22085C12.2835 7.46802 8.18362 11.7949 8.19926 16.9962C8.20406 18.5803 8.58652 20.0756 9.26128 21.3971L8.22543 26.4251C8.16943 26.6972 8.41473 26.9353 8.68493 26.8713L13.6118 25.7041C14.8777 26.3347 16.2994 26.6988 17.8041 26.7217C23.1144 26.8029 27.5421 22.5865 27.7079 17.2782C27.8851 11.588 23.1889 6.94886 17.4791 7.22085ZM23.358 22.3681C21.9152 23.8109 19.9966 24.6056 17.956 24.6056C16.7612 24.6056 15.6172 24.3374 14.5558 23.8088L13.8698 23.467L10.8489 24.1825L11.4847 21.096L11.1468 20.4339C10.5958 19.3548 10.3164 18.1882 10.3164 16.9659C10.3164 14.9253 11.1111 13.0069 12.5539 11.564C13.9838 10.1339 15.9336 9.32645 17.9561 9.32645C19.9965 9.32645 21.9151 10.1211 23.3579 11.564C24.8007 13.0068 25.5954 14.9253 25.5954 16.9657C25.5955 18.9883 24.788 20.938 23.358 22.3681Z" fill="white"/>
<path d="M22.6899 19.0814L20.8 18.5388C20.5517 18.4676 20.284 18.5381 20.103 18.7225L19.6408 19.1933C19.446 19.392 19.1503 19.4557 18.8924 19.3514C17.9983 18.9895 16.1177 17.3173 15.6377 16.4812C15.4989 16.2399 15.5219 15.9384 15.6921 15.718L16.0954 15.196C16.2535 14.9916 16.2868 14.7168 16.1823 14.4805L15.3872 12.6821C15.1968 12.2515 14.6464 12.126 14.2868 12.4302C13.7594 12.8764 13.1336 13.5541 13.0576 14.3052C12.9234 15.6294 13.4914 17.2984 15.6385 19.3027C18.1193 21.6184 20.1059 21.924 21.3996 21.6108C22.1333 21.4332 22.7196 20.7209 23.0894 20.1375C23.3419 19.7395 23.1424 19.2114 22.6899 19.0814Z" fill="white"/>
<path d="M24.6125 9.8345L23.1328 11.3512C23.2081 11.4207 23.2831 11.4907 23.3559 11.5636C24.7988 13.0064 25.5934 14.925 25.5934 16.9654C25.5934 18.9879 24.7859 20.9376 23.3559 22.3677C21.9131 23.8105 19.9946 24.6052 17.954 24.6052C16.7592 24.6052 15.6152 24.337 14.5538 23.8084L13.8678 23.4666L10.8469 24.1822L10.9093 23.879L8.23438 26.6204C8.29337 26.7977 8.48107 26.9184 8.68275 26.8706L13.6097 25.7034C14.8755 26.334 16.2973 26.6981 17.8019 26.7211C23.1122 26.8023 27.5401 22.5859 27.7057 17.2775C27.7973 14.3389 26.5889 11.6807 24.6125 9.8345Z" fill="#D1D1D1"/>
<path d="M22.6878 19.0819L20.7979 18.5393C20.5496 18.4681 20.282 18.5386 20.1009 18.723L19.6387 19.1938C19.4439 19.3925 19.1482 19.4562 18.8903 19.3519C18.3738 19.1428 17.5286 18.4966 16.8138 17.8268L15.5 19.1735C15.5451 19.2166 15.59 19.2597 15.6365 19.3032C18.1172 21.6189 20.1039 21.9245 21.3976 21.6113C22.1313 21.4337 22.7176 20.7214 23.0874 20.138C23.3398 19.74 23.1403 19.2119 22.6878 19.0819Z" fill="#D1D1D1"/>
</g>
<defs>
<clipPath id="clip0_2615_1809">
<rect width="34.0912" height="34.0912" fill="white" transform="translate(0.910156)"/>
</clipPath>
</defs>
</svg>
